<svg width="180" height="37" viewBox="0 0 180 37" fill="none" xmlns="http://www.w3.org/2000/svg">
<g clip-path="url(#clip0_382_475)">
<path d="M45.6748 36.8392H3.43247C1.54139 36.8392 -0.00585938 35.292 -0.00585938 33.4009V3.43833C-0.00585938 1.54725 1.54139 0 3.43247 0H45.6748C47.5659 0 49.1131 1.54725 49.1131 3.43833V33.4009C49.1131 35.292 47.5659 36.8392 45.6748 36.8392Z" fill="#0033CC"/>
<path d="M6.94423 4.05225L5.34786 9.99564H10.8492L4.48828 33.7692H11.5123L13.5507 26.1067H15.3681L13.3297 33.7692H38.626L40.1978 27.875H23.6447L24.1113 26.1067H40.6644L42.2608 20.2124H25.7077L26.1743 18.4441H42.7274L44.5448 11.6657H19.2485L16.9645 20.2124H15.1471L17.8732 9.99564H44.9869L46.5832 4.05225H6.94423Z" fill="white"/>
<path d="M87.9674 9.94682C88.6305 12.1817 91.7004 10.5854 90.718 12.0835C89.9076 13.115 87.7955 12.5501 87.1078 13.95C86.0026 18.0515 91.0619 14.5394 92.3881 13.9255C93.2477 13.6553 94.5493 13.0659 94.5739 12.4273C94.6721 11.3713 94.0581 11.9361 93.6652 11.4449C92.781 10.0696 96.1948 10.0696 94.9914 9.01356C93.8125 8.15398 94.4511 7.56455 93.6897 6.31202C92.1671 4.24902 90.3497 5.82083 90.5707 7.85926C90.2269 9.21004 88.5323 8.71885 87.9674 9.94682Z" fill="black"/>
<path d="M114.735 17.4129C114.465 16.4305 113.458 16.4796 112.77 15.9393C111.321 15.2271 111.567 14.2938 110.069 13.6062C110.732 12.1817 111.125 9.43105 108.571 10.7573C108.079 11.3467 107.515 10.3152 107.515 9.75033C109.086 9.43105 114.047 9.99592 111.223 7.04878C110.756 6.80319 109.97 6.48392 109.774 6.14008C109.455 5.59977 109.799 5.01035 109.258 4.42092C106.925 4.29812 107.711 5.4033 107.465 7.04878L105.943 7.17158C105.059 6.38568 104.15 4.44548 102.308 4.78931C100.883 5.86993 102.799 6.55759 102.676 7.31894C101.989 7.66277 100.515 7.17158 99.8765 7.04878C98.7959 6.85231 98.1083 7.83469 98.1083 7.83469C97.2732 9.55385 98.0591 12.1326 95.8488 13.2378C94.3507 13.9746 91.6 16.6024 93.8349 18.0269C95.1366 18.5917 95.947 16.9954 96.9048 16.5779C98.1819 15.7428 98.7222 13.8272 99.9993 12.8203C102.922 12.0344 101.08 14.9078 99.9748 15.0797C99.9748 15.0797 99.0661 15.5218 98.9924 16.9708C98.9187 17.9286 99.9011 18.3707 99.9011 18.3707C102.013 16.9217 102.455 15.3499 103.732 13.336C105.992 11.052 102.406 11.1993 100.908 11.2239C100.785 10.659 100.933 10.217 101.252 9.87312C101.252 9.87312 103.757 9.55385 105.132 9.92224C105.452 9.99592 105.795 10.5608 106.237 12.5992C106.237 12.5992 106.68 14.4412 105.28 15.6446C103.266 17.4129 104.911 19.6969 105.623 18.4689C108.693 14.8833 106.237 21.5634 110.535 20.2863C110.535 20.2863 114.367 19.918 114.784 18.6654C114.882 18.2233 115.054 18.5181 114.735 17.4129Z" fill="black"/>
<path d="M71.6349 3.1191C71.7577 4.51899 67.8282 4.39619 70.235 6.31183C71.291 6.65566 71.3647 5.968 72.1997 7.07317C73.4277 8.6941 73.9189 6.58198 75.2697 6.60654C76.7678 6.99949 77.6274 5.45225 76.9397 4.34707C76.3503 3.29101 74.8276 3.83132 73.6979 2.9963C73.0102 2.28407 72.3471 3.04542 71.6349 3.1191Z" fill="black"/>
<path d="M63.6742 2.55421C63.4532 3.24187 63.1094 3.06995 62.6673 3.48747C61.0464 4.83824 61.5376 4.17513 60.7026 4.17513C59.2044 7.02403 59.9658 7.83449 62.8147 7.02403C63.4287 8.69408 64.583 8.12921 65.2461 7.02403C65.4425 6.82756 66.6459 5.99253 66.474 5.28031C66.032 4.32249 65.5408 4.22425 65.1724 3.34011C64.6812 2.62788 64.804 2.25949 63.6742 2.55421Z" fill="black"/>
<path d="M80.5241 11.8866C77.8717 11.3709 78.7067 12.2796 75.5386 12.5743C72.2967 12.9673 73.2054 11.3955 75.3421 10.8551C76.5455 10.2903 75.3666 9.33246 74.8509 9.13599C73.3773 8.522 73.9668 8.12905 72.8861 8.6448C72.1248 9.35702 69.2268 10.4622 70.2092 9.1851C70.6758 8.81671 71.0442 8.98863 71.0196 8.00625C70.9459 6.31165 69.3005 7.34314 68.3426 7.34314C65.6656 7.3677 65.5183 7.02387 65.6165 8.44832C68.5882 9.72541 67.5567 10.2657 65.2973 10.192C64.364 9.40614 64.0938 8.81671 63.136 10.2412C62.1045 10.4868 61.7361 9.94645 60.8766 9.79909C57.9785 13.2374 61.7361 12.7953 62.1291 12.6234C63.4307 12.4515 65.2236 11.3218 67.0901 11.2727C68.7356 14.097 62.0063 12.9918 60.6555 13.1392C59.1819 12.8445 57.5365 13.5321 56.8979 14.9075C56.4313 15.9635 55.8664 17.3634 57.7329 17.83C58.6171 17.2652 68.5637 12.9427 66.8445 16.1846C65.3464 16.5038 62.1291 15.0548 62.7676 17.9283C64.4622 18.837 65.2973 17.4616 66.9673 18.5914C67.4831 19.893 66.648 22.8647 68.9075 22.3244C69.7425 21.5876 70.5039 19.5001 70.6267 18.1493C72.0511 17.2161 73.1072 18.444 73.8931 17.0933C74.065 16.16 74.7527 15.8898 74.286 15.2513C75.3175 15.1531 76.6683 16.4056 77.6507 16.5775C79.8856 16.4547 83.3976 14.8583 82.1205 12.2796C81.8749 12.0094 80.5241 11.8866 80.5241 11.8866ZM71.609 10.9779C71.9774 11.5183 72.1985 11.5183 71.9774 12.5252C71.7073 12.6725 71.7073 12.5743 71.4617 12.6971C71.2652 12.7953 70.9459 13.2374 69.9144 12.7708C69.7425 11.4446 70.2583 10.9534 71.609 10.9779ZM72.8861 15.5951C72.4686 15.6442 71.1915 15.6934 70.7986 15.6442C70.0618 15.546 69.9636 14.711 70.4056 14.49C70.774 14.2935 71.8055 14.5391 72.1739 14.711C72.8616 15.0794 73.5738 14.6619 72.8861 15.5951Z" fill="black"/>
<path d="M153.614 8.20312C153.32 9.74967 153.516 8.47316 153.246 9.33235Z" fill="black"/>
<path d="M152.706 13.385C151.183 13.5078 150.005 15.3744 150.496 16.9707C152.313 19.5249 153.983 15.8655 155.58 14.7113C157.815 13.3359 155.138 19.6232 155.923 20.8511C156.415 22.4229 158.355 21.9317 158.723 20.5073C158.821 20.2126 158.772 14.5885 158.772 13.9745C161.302 13.5078 162.383 11.6168 159.116 10.5853C158.969 9.28361 160.983 10.5361 161.13 9.08713C161.425 8.10475 160.467 7.22061 159.828 7.53988C158.993 6.65574 159.828 6.09087 159.779 5.18217C159.902 2.84902 155.752 1.84208 156.267 5.13305C158.65 8.25211 155.555 6.50839 153.615 8.20299C153.615 8.20299 153.32 8.30123 153.246 9.33273C153.099 11.1256 154.892 10.3151 155.727 10.5607C157.127 11.2484 155.162 12.1571 154.548 12.6974C154.524 12.6974 153.271 13.3359 152.706 13.385Z" fill="black"/>
<path d="M177.534 17.5111C177.411 17.4129 177.239 17.3638 177.092 17.4129C177.067 17.4129 177.067 17.4129 177.043 17.4375C176.846 17.5357 176.601 17.462 176.453 17.2901C175.84 16.5533 174.857 16.2586 175.766 14.8096C175.815 14.7605 175.864 14.7114 175.913 14.6622C177.534 13.6062 178.345 11.273 175.913 10.831C175.299 10.7082 175.545 9.11179 175.25 8.47325C175.152 7.81014 173.948 3.75782 171.075 5.79626C170.461 6.23833 169.479 6.90144 169.945 7.68734C169.945 7.68734 170.854 9.75034 172.917 11.0766C173.678 11.5677 171.075 11.7151 170.756 11.3958C169.037 10.1187 169.258 6.95056 167.784 5.32963C167.735 5.28051 167.686 5.23139 167.612 5.20683C165.942 4.44549 166.016 5.82082 165.254 6.926C164.223 7.76102 164.812 6.31201 165.132 5.50155C165.205 5.30507 165.132 5.05948 164.96 4.93668C162.897 3.38943 163.142 5.52611 162.921 7.26983C162.823 8.59604 163.339 9.70122 163.683 10.8555C163.732 11.052 163.879 11.1748 164.076 11.2239C164.419 11.273 164.591 11.273 164.542 11.887C163.118 12.1572 162.037 12.9185 162.577 14.1956C162.676 14.4166 162.946 14.5394 163.191 14.4412C164.714 13.95 165.353 15.0797 163.584 15.2271C162.97 15.2762 161.841 15.9884 161.423 16.5533C160.539 17.2901 160.465 18.5918 161.669 18.69C161.914 18.7146 162.086 18.911 162.111 19.1321C162.135 19.3531 162.209 19.525 162.405 19.8197C163.265 21.0477 164.64 18.8128 165.672 18.5918C169.012 17.0199 166.556 15.9639 166.875 13.95C166.9 13.7535 167.047 13.5816 167.244 13.5325C169.012 13.0413 170.265 12.3782 170.265 15.0306C170.265 15.1534 170.215 15.3008 170.117 15.3745C168.963 16.5042 167.293 17.6831 167.293 19.5005C167.293 19.6724 167.391 19.8197 167.538 19.918C168.938 20.753 169.307 18.7882 170.338 18.076C172.033 17.0936 171.763 20.8021 173.261 21.1459C176.552 22.0055 181.93 20.974 177.534 17.5111ZM168.423 11.1993C168.373 11.6169 168.324 11.4941 168.128 11.5677C167.588 11.8379 167.023 11.9361 166.36 11.9116C166.212 11.1502 166.335 11.2976 166.531 10.9538C166.531 10.9538 166.974 9.21003 167.195 8.91532H167.931C168.251 9.57842 168.521 10.438 168.423 11.1993Z" fill="black"/>
<path d="M145.728 18.3706C145.556 16.6268 141.356 18.7635 139.17 18.4688C137.205 18.4688 135.413 17.7811 133.497 18.1986C131.36 18.6653 131.876 17.4373 131.876 17.4373C132.981 16.676 134.897 17.6092 135.83 17.1426C136.935 16.1602 136.935 14.8586 137.156 13.5815C137.672 12.5008 136.763 12.1325 136.714 11.1501C141.258 11.2238 136.69 8.71868 139.121 8.08014C141.43 7.76086 140.251 10.2414 141.233 11.3957C142.559 11.5185 143.198 10.3642 143.665 9.28355C144.794 6.33641 143.763 3.90503 140.423 5.89434C138.851 6.33641 135.216 7.46615 134.406 5.86978C135.511 5.47683 138.949 5.45227 137.795 3.63487C137.549 3.21736 137.598 3.11912 136.395 3.11912C135.462 3.29104 134.553 3.29104 133.841 2.62793C132.564 2.2841 133.767 3.85591 132.392 3.70855C131.385 4.05238 128.413 4.17518 127.627 3.73311C126.448 2.79985 123.722 2.82441 124.14 5.03476C124.778 6.33641 124.901 5.86978 126.105 6.41009C126.522 7.68719 120.505 6.06626 120.038 7.14688C119.326 8.12926 120.407 9.55371 119.965 10.5606C118.859 12.3289 120.087 13.6797 121.684 12.0588C121.929 11.2238 122.74 7.93278 123.845 8.96428C124.95 12.8201 126.792 9.97122 126.743 11.8377C124.656 11.6904 124.852 13.7779 124.852 15.3006C123.28 18.96 125.638 18.6407 128.732 18.1495C127.038 23.0614 132.073 19.6722 134.553 20.8511C134.553 20.8511 138.507 22.2264 139.76 22.2018C142.437 22.2018 145.973 20.9493 145.728 18.3706ZM133.546 13.1639C133.104 13.1885 130.402 13.2376 132.564 12.6236C133.153 12.6482 133.153 12.8201 133.546 12.5254C134.234 12.6482 134.381 13.385 133.546 13.1639ZM132.023 5.9189C132.637 5.89434 132.858 5.96802 132.736 6.63113C132.023 6.72937 131.901 6.63113 132.023 5.9189ZM127.578 6.26274C127.775 5.84523 128.487 5.89434 128.487 5.89434C128.782 5.9189 128.782 6.18906 128.782 6.18906C128.782 6.33641 128.732 6.68025 128.732 6.68025C128.29 7.12232 127.897 6.92584 127.897 6.92584C127.382 6.63113 127.578 6.26274 127.578 6.26274ZM127.455 15.5462C127.971 15.3252 129.592 14.5884 129.567 15.7427C129.027 16.0374 127.504 16.5777 127.455 15.5462ZM129.101 9.94666C129.543 9.60283 130.083 10.5852 130.771 9.97122C131.655 9.06252 130.402 7.88366 133.792 8.30117C133.669 9.06252 134.062 9.06252 134.553 9.52915C134.946 9.9221 134.479 9.65194 134.406 10.3151C134.381 10.5852 134.43 10.9782 134.381 11.2974C132.908 11.1746 127.259 12.8938 129.101 9.94666ZM133.693 14.834C133.939 16.062 132.023 15.5462 131.09 15.5462C130.992 14.5884 131.63 14.7603 133.693 14.834Z" fill="black"/>
<path d="M56.957 34.2359V33.45C57.1289 33.45 57.3009 33.4254 57.3991 33.3763C57.5219 33.3272 57.6201 33.2535 57.6938 33.1061C57.7675 32.9588 57.7921 32.7377 57.7921 32.4185V27.8995C57.7921 27.6785 57.7921 27.482 57.8166 27.2855C57.8166 27.0891 57.8412 26.9417 57.8412 26.8435C57.7184 26.8435 57.5465 26.868 57.3745 26.868C57.1781 26.868 57.0553 26.868 56.957 26.8926V25.9839H62.8513L62.925 28.2679H62.1391C62.1391 27.8258 62.0654 27.5066 61.918 27.2855C61.7707 27.0645 61.5742 26.9171 61.3532 26.8435C61.1321 26.7698 60.9111 26.7452 60.7146 26.7452H60.2971C60.1252 26.7452 60.0024 26.7698 59.8796 26.8189C59.7568 26.868 59.6831 26.9663 59.6095 27.1136C59.5358 27.261 59.5112 27.482 59.5112 27.8013V29.8643H60.7146L60.6655 28.8573H61.5742V31.6817H60.7883C60.7883 31.3624 60.7392 31.1168 60.641 30.9695C60.5427 30.8221 60.3954 30.7239 60.2234 30.6993C60.0515 30.6747 59.8551 30.6502 59.634 30.6502H59.4867V32.2957C59.4867 32.5167 59.4867 32.7132 59.4867 32.9097C59.4867 33.1061 59.4621 33.2535 59.4621 33.3517C59.5603 33.3517 59.6586 33.3272 59.8059 33.3272C59.9533 33.3272 60.0761 33.3272 60.2234 33.3272C60.3708 33.3272 60.469 33.3272 60.5182 33.3272V34.2359H56.957Z" fill="black"/>
<path d="M67.9111 34.408C67.1744 34.408 66.5358 34.2852 65.9955 34.0396C65.4798 33.794 65.0622 33.4502 64.7184 33.0326C64.3991 32.6151 64.1535 32.1485 64.0062 31.6328C63.8588 31.117 63.7852 30.6013 63.7852 30.1101C63.7852 29.6189 63.8588 29.1031 64.0308 28.6119C64.2027 28.0962 64.4483 27.6296 64.7921 27.212C65.1359 26.7945 65.5534 26.4507 66.0937 26.1805C66.6095 25.9104 67.2235 25.7876 67.9111 25.7876C68.6234 25.7876 69.2374 25.9104 69.7531 26.1805C70.2689 26.4507 70.6864 26.7945 71.0302 27.212C71.3495 27.6296 71.5951 28.0962 71.767 28.6119C71.9389 29.1031 72.0126 29.6189 72.0126 30.1101C72.0126 30.6013 71.9389 31.0924 71.767 31.5836C71.5951 32.0748 71.3495 32.5415 71.0056 32.9835C70.6618 33.401 70.2443 33.7694 69.704 34.015C69.2128 34.2852 68.6234 34.408 67.9111 34.408ZM68.0339 33.5484C68.4515 33.5484 68.7953 33.4502 69.0654 33.2537C69.3356 33.0572 69.5566 32.7871 69.7285 32.4678C69.9005 32.1485 70.0233 31.8047 70.0724 31.4117C70.1461 31.0188 70.1706 30.6504 70.1706 30.3065C70.1706 29.7662 70.1215 29.275 70.0233 28.833C69.925 28.3909 69.7777 27.998 69.5812 27.6787C69.3847 27.3594 69.1391 27.0893 68.8444 26.9173C68.5497 26.7454 68.1813 26.6472 67.7883 26.6717C67.3954 26.6717 67.0516 26.7945 66.7814 26.991C66.5113 27.1875 66.2902 27.4576 66.1183 27.8015C65.9464 28.1207 65.8236 28.4891 65.7745 28.8575C65.7008 29.2505 65.6762 29.6189 65.6762 29.9873C65.6762 30.3557 65.7254 30.7486 65.799 31.1661C65.8727 31.5836 66.0201 31.9766 66.192 32.345C66.3639 32.7134 66.6095 33.0081 66.9288 33.2291C67.2235 33.4502 67.5919 33.5484 68.0339 33.5484Z" fill="black"/>
<path d="M73.2168 34.2364V33.4505C73.3887 33.4505 73.5606 33.4259 73.6589 33.3768C73.7817 33.3277 73.8799 33.254 73.9536 33.1066C74.0273 32.9593 74.0518 32.7382 74.0518 32.419V27.9C74.0518 27.679 74.0518 27.4825 74.0764 27.286C74.0764 27.0896 74.1009 26.9422 74.1009 26.844C73.9781 26.844 73.8062 26.8685 73.6343 26.8685C73.4378 26.8685 73.315 26.8685 73.2168 26.8931V25.9844C73.7817 25.9844 74.322 25.9844 74.8868 25.9844C75.4517 25.9844 75.992 25.9844 76.5569 25.9844C77.2446 25.9844 77.8585 26.0581 78.3497 26.23C78.8655 26.4019 79.2584 26.672 79.5286 27.0404C79.7987 27.4088 79.9215 27.9 79.9215 28.5386C79.9215 28.8578 79.8233 29.1771 79.6759 29.4718C79.5286 29.7665 79.283 30.0367 78.9883 30.2577C78.6936 30.4788 78.3006 30.6752 77.834 30.798C77.9813 30.8717 78.1287 30.9699 78.2761 31.0927C78.4234 31.2401 78.5462 31.3875 78.6444 31.5348L79.2093 32.3698C79.3812 32.64 79.5286 32.861 79.6759 33.0084C79.7987 33.1557 79.9461 33.2785 80.0689 33.3522C80.1917 33.4259 80.3636 33.475 80.5355 33.475V34.2609H78.5953C78.448 34.1627 78.3252 34.0153 78.1778 33.8188C78.0305 33.6224 77.8831 33.4013 77.7357 33.1557L76.8516 31.7313C76.7534 31.5839 76.6551 31.4366 76.5814 31.3383C76.5078 31.2401 76.4341 31.1419 76.3604 31.0436C76.2376 31.0436 76.1394 31.0436 76.0411 31.0436C75.9429 31.0436 75.8447 31.0436 75.7464 31.0436V32.2962C75.7464 32.5172 75.7464 32.7137 75.7464 32.9101C75.7464 33.1066 75.7219 33.254 75.7219 33.3522C75.8201 33.3522 75.9183 33.3277 76.0411 33.3277C76.1639 33.3277 76.3113 33.3277 76.4341 33.3277C76.5569 33.3277 76.6551 33.3277 76.7042 33.3277V34.2364H73.2168ZM76.3113 30.1595C76.7534 30.1595 77.0972 30.0858 77.3673 29.963C77.6375 29.8402 77.834 29.6437 77.9568 29.3736C78.0796 29.1034 78.1287 28.7842 78.1287 28.3666C78.1287 27.9983 78.0796 27.7035 77.9568 27.4825C77.834 27.2615 77.6866 27.1141 77.5147 26.9913C77.3428 26.8931 77.1709 26.8194 76.9744 26.7948C76.8025 26.7703 76.6551 26.7457 76.5323 26.7457C76.3604 26.7457 76.2376 26.7703 76.1148 26.7948C75.992 26.8194 75.9183 26.9176 75.8447 27.065C75.771 27.1878 75.7464 27.4088 75.7464 27.679V30.0858C75.8447 30.0858 75.9183 30.1104 76.0166 30.1104C76.1148 30.1595 76.2131 30.1595 76.3113 30.1595Z" fill="black"/>
<path d="M87.6807 28.6363C87.6807 28.2188 87.6316 27.8504 87.5088 27.5803C87.386 27.3101 87.214 27.0891 87.0176 26.9663C86.7965 26.8189 86.5509 26.7698 86.2562 26.7698H85.6914V32.2957C85.6914 32.5167 85.6914 32.7132 85.6914 32.9097C85.6914 33.1061 85.6668 33.2535 85.6668 33.3517C85.7896 33.3272 85.9615 33.3272 86.1826 33.3272C86.379 33.3272 86.5264 33.3272 86.6246 33.3272V34.2359H83.1863V33.45C83.3582 33.45 83.5301 33.4254 83.6284 33.3763C83.7266 33.3272 83.8494 33.2535 83.9231 33.1061C83.9968 32.9588 84.0213 32.7377 84.0213 32.4185V26.7698H83.481C83.0389 26.7698 82.6705 26.9417 82.425 27.2364C82.1548 27.5311 82.032 27.9978 82.032 28.6363H81.2461L81.2952 25.9839H88.442L88.5157 28.6363H87.6807Z" fill="black"/>
<path d="M92.6431 26.7452C92.4712 26.7452 92.3238 26.7698 92.201 26.8189C92.0782 26.868 91.98 26.9417 91.9063 27.0891C91.8327 27.2364 91.8081 27.4575 91.8081 27.7767V31.0186C91.8081 31.5098 91.8572 31.9273 91.9554 32.2466C92.0537 32.5658 92.201 32.8114 92.373 33.0079C92.5449 33.2044 92.7414 33.3272 92.9624 33.4008C93.1834 33.4745 93.4045 33.5236 93.6501 33.5236C94.0921 33.5482 94.4605 33.45 94.7552 33.2781C95.0499 33.1061 95.2955 32.8114 95.4675 32.443C95.6394 32.0746 95.7131 31.5834 95.7131 30.994V27.8995C95.7131 27.6785 95.7131 27.482 95.7131 27.2855C95.7131 27.0891 95.7376 26.9417 95.7376 26.8435C95.6148 26.8435 95.4429 26.868 95.271 26.868C95.0745 26.868 94.9272 26.868 94.8535 26.8926V25.9839H97.5796V26.7698C97.4077 26.7698 97.2603 26.7943 97.1375 26.8435C97.0147 26.8926 96.9165 26.9663 96.8428 27.1136C96.7691 27.261 96.7445 27.482 96.7445 27.8013V30.7484C96.7445 31.4361 96.6709 32.001 96.499 32.4676C96.327 32.9342 96.106 33.3272 95.8113 33.6219C95.5166 33.9166 95.1727 34.1131 94.7552 34.2604C94.3623 34.3832 93.9202 34.4569 93.4536 34.4569C92.7905 34.4569 92.2502 34.3587 91.8081 34.1622C91.366 33.9657 91.0222 33.7201 90.7766 33.3763C90.531 33.0325 90.3345 32.6395 90.2363 32.1974C90.138 31.7554 90.0889 31.2887 90.0889 30.773V27.9241C90.0889 27.703 90.0889 27.5066 90.1135 27.3101C90.1135 27.1136 90.138 26.9663 90.138 26.868C90.0153 26.868 89.8433 26.8926 89.6714 26.8926C89.4749 26.8926 89.3521 26.8926 89.2539 26.9171V26.0084H92.6431V26.7452Z" fill="black"/>
<path d="M105.069 34.3341L101.287 29.5205C101.189 29.3977 101.091 29.2503 100.968 29.1029C100.87 28.9556 100.747 28.8082 100.649 28.6363L100.673 32.2957C100.673 32.5167 100.673 32.7132 100.673 32.9097C100.673 33.1061 100.649 33.2535 100.649 33.3517C100.771 33.3272 100.943 33.3272 101.115 33.3272C101.312 33.3272 101.435 33.3272 101.533 33.3272V34.2359H98.8558V33.45C99.0277 33.45 99.1996 33.4254 99.2978 33.3763C99.3961 33.3272 99.5189 33.2535 99.5925 33.1061C99.6662 32.9588 99.6908 32.7377 99.6908 32.4185L99.6662 27.8995C99.6662 27.6785 99.6662 27.482 99.6662 27.2855C99.6662 27.0891 99.6908 26.9417 99.6908 26.8435C99.568 26.8435 99.3961 26.868 99.2242 26.868C99.0277 26.868 98.8803 26.868 98.8066 26.8926V25.9839H100.649L104.259 30.5274C104.455 30.773 104.627 30.994 104.75 31.1659C104.873 31.3379 104.996 31.5098 105.094 31.6326V27.8995C105.094 27.6785 105.094 27.482 105.094 27.2855C105.094 27.0891 105.118 26.9417 105.118 26.8435C104.996 26.8435 104.824 26.868 104.652 26.868C104.455 26.868 104.333 26.868 104.234 26.8926V25.9839H106.911V26.7698C106.739 26.7698 106.592 26.7943 106.469 26.8435C106.346 26.8926 106.248 26.9663 106.174 27.1136C106.101 27.261 106.076 27.482 106.076 27.8013V34.3587H105.069V34.3341Z" fill="black"/>
<path d="M112.214 31.387C112.214 31.0677 112.165 30.8221 112.066 30.6747C111.968 30.5274 111.821 30.4292 111.649 30.4046C111.477 30.3555 111.281 30.3555 111.06 30.3555H110.765V32.2957C110.765 32.5167 110.765 32.7132 110.765 32.8851C110.765 33.0816 110.74 33.2289 110.74 33.3272H112.312C112.558 33.3272 112.779 33.2781 113 33.1798C113.221 33.0816 113.393 32.8851 113.54 32.6395C113.687 32.3939 113.761 32.0501 113.761 31.6326H114.522L114.473 34.2359H108.26V33.45C108.432 33.45 108.604 33.4254 108.702 33.3763C108.8 33.3272 108.923 33.2535 108.997 33.1061C109.07 32.9588 109.095 32.7377 109.095 32.4185V27.8995C109.095 27.6785 109.095 27.482 109.119 27.2855C109.144 27.0891 109.144 26.9417 109.144 26.8435C109.021 26.8435 108.849 26.868 108.677 26.868C108.481 26.868 108.358 26.868 108.26 26.8926V25.9839H114.154L114.228 28.2679H113.442C113.442 27.8258 113.368 27.5066 113.221 27.2855C113.073 27.0645 112.877 26.9171 112.656 26.8435C112.435 26.7698 112.214 26.7452 112.017 26.7452H111.6C111.428 26.7452 111.305 26.7698 111.182 26.8189C111.06 26.868 110.986 26.9663 110.912 27.1136C110.839 27.261 110.814 27.482 110.814 27.8013V29.5696H112.189L112.14 28.5381H113.049V31.4115H112.214V31.387Z" fill="black"/>
<path d="M123.267 31.387C123.267 31.0677 123.217 30.8221 123.119 30.6747C123.021 30.5274 122.874 30.4292 122.702 30.4046C122.53 30.3555 122.333 30.3555 122.112 30.3555H121.818V32.2957C121.818 32.5167 121.818 32.7132 121.818 32.8851C121.818 33.0816 121.793 33.2289 121.793 33.3272H123.365C123.61 33.3272 123.831 33.2781 124.052 33.1798C124.274 33.0816 124.445 32.8851 124.593 32.6395C124.74 32.3939 124.814 32.0501 124.814 31.6326H125.575L125.526 34.2359H119.312V33.45C119.484 33.45 119.656 33.4254 119.755 33.3763C119.853 33.3272 119.976 33.2535 120.049 33.1061C120.123 32.9588 120.148 32.7377 120.148 32.4185V27.8995C120.148 27.6785 120.148 27.482 120.172 27.2855C120.197 27.0891 120.197 26.9417 120.197 26.8435C120.074 26.8435 119.902 26.868 119.73 26.868C119.534 26.868 119.411 26.868 119.312 26.8926V25.9839H125.207L125.28 28.2679H124.495C124.495 27.8258 124.421 27.5066 124.274 27.2855C124.126 27.0645 123.93 26.9171 123.709 26.8435C123.488 26.7698 123.267 26.7452 123.07 26.7452H122.653C122.481 26.7452 122.358 26.7698 122.235 26.8189C122.112 26.868 122.039 26.9663 121.965 27.1136C121.891 27.261 121.867 27.482 121.867 27.8013V29.5696H123.242L123.193 28.5381H124.102V31.4115H123.267V31.387Z" fill="black"/>
<path d="M126.9 34.2359V33.45C127.072 33.45 127.244 33.4254 127.342 33.3763C127.441 33.3272 127.563 33.2535 127.637 33.1061C127.711 32.9588 127.735 32.7377 127.735 32.4185V27.8995C127.735 27.6785 127.735 27.482 127.76 27.2855C127.785 27.0891 127.785 26.9417 127.785 26.8435C127.662 26.8435 127.49 26.868 127.318 26.868C127.121 26.868 126.999 26.868 126.9 26.8926V25.9839H130.29V26.7698C130.118 26.7698 129.97 26.7943 129.848 26.8435C129.725 26.8926 129.626 26.9663 129.553 27.1136C129.479 27.261 129.455 27.482 129.455 27.8013V32.3202C129.455 32.5413 129.455 32.7377 129.455 32.9097C129.455 33.1061 129.43 33.2535 129.43 33.3517H131.002C131.468 33.3517 131.837 33.1798 132.082 32.8605C132.353 32.5413 132.475 32.0501 132.475 31.4115H133.261L133.188 34.2359H126.9Z" fill="black"/>
<path d="M138.321 31.3875C138.321 31.0682 138.272 30.8226 138.174 30.6752C138.076 30.5279 137.928 30.4296 137.756 30.4051C137.584 30.356 137.388 30.356 137.167 30.356H136.872V32.2962C136.872 32.5172 136.872 32.7137 136.872 32.8856C136.872 33.0821 136.848 33.2294 136.848 33.3277H138.42C138.665 33.3277 138.886 33.2785 139.107 33.1803C139.328 33.0821 139.5 32.8856 139.647 32.64C139.795 32.3944 139.869 32.0506 139.869 31.6331H140.63L140.581 34.2364H134.367V33.4505C134.539 33.4505 134.711 33.4259 134.809 33.3768C134.908 33.3277 135.03 33.254 135.104 33.1066C135.178 32.9593 135.202 32.7382 135.202 32.419V27.9C135.202 27.679 135.202 27.4825 135.227 27.286C135.251 27.0896 135.251 26.9422 135.251 26.844C135.129 26.844 134.957 26.8685 134.785 26.8685C134.588 26.8685 134.465 26.8685 134.367 26.8931V25.9844H140.261L140.335 28.2684H139.5C139.5 27.8263 139.426 27.5071 139.279 27.286C139.132 27.065 138.935 26.9176 138.714 26.844C138.493 26.7703 138.272 26.7457 138.076 26.7457H137.658C137.486 26.7457 137.363 26.7703 137.241 26.8194C137.118 26.8685 137.044 26.9668 136.971 27.1141C136.897 27.2615 136.872 27.4825 136.872 27.8018V29.5701H138.248L138.198 28.5386H139.107V31.412H138.321V31.3875Z" fill="black"/>
<path d="M148.05 28.6119C147.952 27.9488 147.731 27.4576 147.387 27.1384C147.043 26.8191 146.601 26.6472 146.06 26.6226C145.643 26.6226 145.299 26.7209 144.98 26.9173C144.685 27.1138 144.415 27.3594 144.219 27.6787C144.022 27.998 143.875 28.3418 143.776 28.7593C143.678 29.1522 143.629 29.5698 143.629 29.9873C143.629 30.6749 143.727 31.2644 143.924 31.7801C144.12 32.2959 144.39 32.7134 144.759 33.0081C145.127 33.3028 145.569 33.4502 146.11 33.4502C146.601 33.4502 147.092 33.3274 147.583 33.0572C148.074 32.8116 148.467 32.4432 148.811 32.0011L149.376 32.5169C148.983 33.0326 148.59 33.4502 148.173 33.7203C147.755 33.9905 147.338 34.1624 146.92 34.2606C146.527 34.3589 146.159 34.408 145.839 34.408C145.225 34.408 144.685 34.3097 144.194 34.0887C143.703 33.8677 143.261 33.573 142.917 33.2046C142.548 32.8116 142.278 32.3695 142.082 31.8784C141.885 31.3626 141.787 30.8223 141.787 30.2329C141.787 29.6926 141.885 29.1768 142.057 28.6365C142.229 28.1207 142.499 27.6296 142.819 27.212C143.162 26.7945 143.58 26.4507 144.12 26.1805C144.636 25.935 145.25 25.7876 145.913 25.7876C146.208 25.7876 146.552 25.8367 146.92 25.935C147.288 26.0332 147.632 26.1805 147.952 26.377L147.902 25.8858H148.811V28.6365H148.05V28.6119Z" fill="black"/>
<path d="M156.472 28.6363C156.472 28.2188 156.423 27.8504 156.3 27.5803C156.177 27.3101 156.005 27.0891 155.809 26.9663C155.588 26.8189 155.342 26.7698 155.047 26.7698H154.482V32.2957C154.482 32.5167 154.482 32.7132 154.482 32.9097C154.482 33.1061 154.458 33.2535 154.458 33.3517C154.581 33.3272 154.753 33.3272 154.974 33.3272C155.17 33.3272 155.317 33.3272 155.416 33.3272V34.2359H151.977V33.45C152.149 33.45 152.321 33.4254 152.419 33.3763C152.542 33.3272 152.64 33.2535 152.714 33.1061C152.788 32.9588 152.812 32.7377 152.812 32.4185V26.7698H152.272C151.83 26.7698 151.462 26.9417 151.216 27.2364C150.946 27.5311 150.823 27.9978 150.823 28.6363H150.037L150.086 25.9839H157.184L157.258 28.6363H156.472Z" fill="black"/>
<path d="M158.338 34.2359V33.45C158.51 33.45 158.682 33.4254 158.78 33.3763C158.878 33.3272 159.001 33.2535 159.075 33.1061C159.148 32.9588 159.173 32.7377 159.173 32.4185V27.8995C159.173 27.6785 159.173 27.482 159.197 27.2855C159.222 27.0891 159.222 26.9417 159.222 26.8435C159.099 26.8435 158.927 26.868 158.755 26.868C158.559 26.868 158.436 26.868 158.338 26.8926V25.9839C158.903 25.9839 159.443 25.9839 160.008 25.9839C160.573 25.9839 161.113 25.9839 161.678 25.9839C162.366 25.9839 162.98 26.0576 163.471 26.2295C163.962 26.4014 164.38 26.6716 164.65 27.0399C164.92 27.4083 165.043 27.8995 165.043 28.5381C165.043 28.8573 164.944 29.1766 164.797 29.4713C164.65 29.766 164.404 30.0362 164.109 30.2572C163.815 30.4783 163.422 30.6747 162.955 30.7975C163.102 30.8712 163.25 30.9695 163.397 31.0923C163.544 31.2396 163.667 31.387 163.766 31.5343L164.33 32.3694C164.502 32.6395 164.65 32.8605 164.797 33.0079C164.92 33.1553 165.067 33.2781 165.19 33.3517C165.313 33.4254 165.485 33.4745 165.657 33.4745V34.2604H163.716C163.569 34.1622 163.446 34.0148 163.299 33.8184C163.152 33.6219 163.004 33.4009 162.857 33.1553L161.973 31.7308C161.874 31.5834 161.776 31.4361 161.703 31.3379C161.629 31.2396 161.555 31.1414 161.482 31.0431C161.359 31.0431 161.26 31.0431 161.162 31.0431C161.064 31.0431 160.966 31.0431 160.868 31.0431V32.2957C160.868 32.5167 160.868 32.7132 160.868 32.9097C160.868 33.1061 160.843 33.2535 160.843 33.3517C160.941 33.3517 161.039 33.3272 161.162 33.3272C161.285 33.3272 161.432 33.3272 161.555 33.3272C161.678 33.3272 161.776 33.3272 161.825 33.3272V34.2359H158.338ZM161.432 30.159C161.874 30.159 162.218 30.0853 162.488 29.9625C162.759 29.8397 162.955 29.6432 163.078 29.3731C163.201 29.1029 163.25 28.7837 163.25 28.3662C163.25 27.9978 163.201 27.7031 163.078 27.482C162.955 27.261 162.808 27.1136 162.636 26.9908C162.464 26.8926 162.292 26.8189 162.095 26.7943C161.924 26.7698 161.776 26.7452 161.653 26.7452C161.482 26.7452 161.359 26.7698 161.236 26.7943C161.113 26.8435 161.039 26.9171 160.966 27.0645C160.892 27.1873 160.868 27.4083 160.868 27.6785V30.0853C160.966 30.0853 161.039 30.1099 161.138 30.1099C161.236 30.1099 161.334 30.159 161.432 30.159Z" fill="black"/>
<path d="M170.105 26.7452C169.933 26.7452 169.786 26.7698 169.663 26.8189C169.54 26.868 169.442 26.9417 169.368 27.0891C169.294 27.2364 169.27 27.4575 169.27 27.7767V32.2957C169.27 32.5167 169.27 32.7132 169.27 32.9097C169.27 33.1061 169.245 33.2535 169.245 33.3517C169.368 33.3272 169.54 33.3272 169.712 33.3272C169.908 33.3272 170.031 33.3272 170.129 33.3272V34.2359H166.74V33.45C166.912 33.45 167.084 33.4254 167.182 33.3763C167.281 33.3272 167.403 33.2535 167.477 33.1061C167.551 32.9588 167.575 32.7377 167.575 32.4185V27.8995C167.575 27.6785 167.575 27.482 167.6 27.2855C167.624 27.0891 167.624 26.9417 167.624 26.8435C167.502 26.8435 167.33 26.868 167.158 26.868C166.961 26.868 166.838 26.868 166.74 26.8926V25.9839H170.129V26.7452H170.105Z" fill="black"/>
<path d="M177.519 28.6119C177.42 27.9488 177.199 27.4576 176.855 27.1384C176.512 26.8191 176.07 26.6472 175.529 26.6226C175.112 26.6226 174.768 26.7209 174.449 26.9173C174.154 27.1138 173.884 27.3594 173.687 27.6787C173.491 27.998 173.343 28.3418 173.245 28.7593C173.147 29.1522 173.098 29.5698 173.098 29.9873C173.098 30.6749 173.196 31.2644 173.393 31.7801C173.589 32.2959 173.859 32.7134 174.228 33.0081C174.596 33.3028 175.038 33.4502 175.578 33.4502C176.07 33.4502 176.561 33.3274 177.052 33.0572C177.543 32.8116 177.936 32.4432 178.28 32.0011L178.845 32.5169C178.452 33.0326 178.059 33.4502 177.641 33.7203C177.224 33.9905 176.806 34.1624 176.389 34.2606C175.996 34.3589 175.627 34.408 175.308 34.408C174.694 34.408 174.154 34.3097 173.663 34.0887C173.171 33.8677 172.729 33.573 172.386 33.2046C172.017 32.8116 171.747 32.3695 171.551 31.8784C171.354 31.3626 171.256 30.8223 171.256 30.2329C171.256 29.6926 171.354 29.1768 171.526 28.6365C171.698 28.1207 171.968 27.6296 172.287 27.212C172.631 26.7945 173.049 26.4507 173.589 26.1805C174.105 25.935 174.719 25.7876 175.382 25.7876C175.677 25.7876 176.02 25.8367 176.389 25.935C176.757 26.0332 177.101 26.1805 177.42 26.377L177.371 25.8858H178.28V28.6365H177.519V28.6119Z" fill="black"/>
</g>
<defs>
<clipPath id="clip0_382_475">
<rect width="179.211" height="36.8392" fill="white"/>
</clipPath>
</defs>
</svg>
